<svg width="1200" height="800" viewBox="0 0 1200 800" xmlns="http://www.w3.org/2000/svg">
  <defs>
    <linearGradient id="g" x1="0" x2="1" y1="0" y2="1">
      <stop offset="0" stop-color="#f1ece4"/>
      <stop offset="1" stop-color="#d9cdbd"/>
    </linearGradient>
    <pattern id="p" width="80" height="80" patternUnits="userSpaceOnUse">
      <path d="M40 8c-8 16-24 24-24 40s16 24 24 40c8-16 24-24 24-40S48 24 40 8z" fill="#000" fill-opacity="0.04"/>
    </pattern>
  </defs>
  <rect width="1200" height="800" fill="url(#g)"/>
  <rect width="1200" height="800" fill="url(#p)"/>
  <rect x="140" y="180" width="420" height="440" rx="28" fill="#0e2016" opacity="0.9"/>
  <rect x="660" y="220" width="400" height="360" rx="22" fill="#1a3a2a" opacity="0.85"/>
  <path d="M260 520c60-70 140-110 220-120" stroke="#f0c27b" stroke-width="12" fill="none"/>
  <circle cx="340" cy="360" r="70" fill="#f0c27b"/>
  <rect x="720" y="300" width="250" height="16" rx="8" fill="#f0c27b"/>
  <rect x="720" y="335" width="300" height="12" rx="6" fill="#e8b66a"/>
  <rect x="720" y="370" width="260" height="12" rx="6" fill="#e2a957"/>
  <rect x="720" y="430" width="220" height="36" rx="18" fill="#f0c27b"/>
</svg>
