<svg width="1200" height="800" viewBox="0 0 1200 800" xmlns="http://www.w3.org/2000/svg">
  <defs>
    <linearGradient id="g" x1="0" x2="1" y1="0" y2="1">
      <stop offset="0" stop-color="#e8d7b8"/>
      <stop offset="1" stop-color="#caa86c"/>
    </linearGradient>
    <pattern id="p" width="60" height="60" patternUnits="userSpaceOnUse">
      <path d="M30 6c-6 12-18 18-18 30s12 18 18 30c6-12 18-18 18-30S36 18 30 6z" fill="#000" fill-opacity="0.05"/>
    </pattern>
  </defs>
  <rect width="1200" height="800" fill="url(#g)"/>
  <rect width="1200" height="800" fill="url(#p)"/>
  <rect x="120" y="140" width="380" height="480" rx="24" fill="#0e2016" opacity="0.9"/>
  <rect x="560" y="180" width="520" height="400" rx="28" fill="#1a3a2a" opacity="0.85"/>
  <circle cx="320" cy="300" r="90" fill="#f2c47a"/>
  <rect x="250" y="410" width="140" height="18" rx="9" fill="#f2c47a"/>
  <rect x="240" y="445" width="160" height="14" rx="7" fill="#e9b868"/>
  <rect x="600" y="240" width="260" height="18" rx="9" fill="#f2c47a"/>
  <rect x="600" y="280" width="320" height="14" rx="7" fill="#e9b868"/>
  <rect x="600" y="315" width="280" height="14" rx="7" fill="#e2a957"/>
  <rect x="600" y="380" width="360" height="120" rx="18" fill="#0e2016" opacity="0.85"/>
  <circle cx="930" cy="420" r="52" fill="#f2c47a"/>
  <rect x="900" y="470" width="100" height="16" rx="8" fill="#e9b868"/>
</svg>
